<?xml version="1.0" standalone="no"?>
<!DOCTYPE svg PUBLIC "-//W3C//DTD SVG 20010904//EN"
 "http://www.w3.org/TR/2001/REC-SVG-20010904/DTD/svg10.dtd">
<svg version="1.0" xmlns="http://www.w3.org/2000/svg"
 width="959.000000pt" height="1280.000000pt" viewBox="0 0 959.000000 1280.000000"
 preserveAspectRatio="xMidYMid meet">

<g transform="translate(0.000000,1280.000000) scale(0.100000,-0.100000)"
fill="#000000" stroke="none">
<path d="M0 6400 l0 -6400 4795 0 4795 0 0 6400 0 6400 -4795 0 -4795 0 0
-6400z m5239 5782 c45 -41 55 -61 18 -37 -21 13 -73 75 -64 75 3 0 23 -17 46
-38z m-1419 -87 c-13 -14 -26 -22 -29 -19 -3 3 5 14 18 25 33 27 39 24 11 -6z
m1441 -5 c18 -16 30 -33 26 -37 -8 -7 -67 45 -67 59 0 13 7 9 41 -22z m-385
-77 c-6 -6 -36 9 -36 18 0 5 9 4 20 -3 10 -7 18 -14 16 -15z m-1156 -2 c0 -5
-7 -12 -16 -15 -14 -5 -15 -4 -4 9 14 17 20 19 20 6z m1851 -8 c13 -17 13 -17
-6 -3 -11 8 -22 16 -24 17 -2 2 0 3 6 3 6 0 17 -8 24 -17z m67 -25 c7 -7 12
-19 12 -27 0 -11 -4 -10 -20 4 -21 19 -26 35 -12 35 4 0 13 -5 20 -12z m-661
-4 c-3 -3 -12 -4 -19 -1 -8 3 -5 6 6 6 11 1 17 -2 13 -5z m-87 -56 c30 -28 46
-48 35 -44 -11 5 -42 17 -69 27 -27 10 -51 21 -55 25 -3 4 1 5 11 1 24 -9 30
4 11 25 -13 15 -13 18 -2 18 8 0 39 -23 69 -52z m516 -16 c-9 -8 -40 16 -42
33 -2 14 2 13 22 -6 13 -12 22 -24 20 -27z m-1796 -37 c-7 -9 -15 -13 -17 -11
-7 7 7 26 19 26 6 0 6 -6 -2 -15z m1296 -11 c19 -15 33 -29 31 -31 -7 -6 -77
38 -77 48 0 14 9 11 46 -17z m-22 -29 c11 -8 16 -15 10 -15 -5 0 -18 7 -28 15
-11 8 -16 15 -10 15 5 0 18 -7 28 -15z m111 -25 c3 -5 1 -10 -4 -10 -6 0 -11
5 -11 10 0 6 2 10 4 10 3 0 8 -4 11 -10z m-365 -30 c12 -8 12 -10 -5 -10 -11
0 -27 5 -35 10 -12 8 -12 10 5 10 11 0 27 -5 35 -10z m70 -5 c25 -14 25 -14
-11 -12 -24 1 -35 6 -32 15 6 15 12 15 43 -3z m-95 -61 c81 -18 92 -24 43 -24
-40 0 -138 27 -153 42 -7 7 -2 9 15 4 14 -4 57 -14 95 -22z m25 -41 l45 -13
-46 6 c-73 8 -103 15 -113 24 -11 11 50 2 114 -17z m49 -69 c15 -14 -17 -15
-76 -1 l-68 17 70 -6 c38 -3 71 -7 74 -10z m6 -43 c9 -15 -6 -19 -50 -13 -32
4 -36 6 -20 13 28 11 63 11 70 0z m500 -11 c3 -6 -1 -7 -9 -4 -18 7 -21 14 -7
14 6 0 13 -4 16 -10z m-578 -36 c-3 -3 -12 -4 -19 -1 -8 3 -5 6 6 6 11 1 17
-2 13 -5z m78 -24 c13 -6 15 -9 5 -9 -8 0 -22 4 -30 9 -18 12 -2 12 25 0z
m-612 -30 c27 -22 47 -26 47 -10 0 16 50 11 68 -7 16 -16 17 -16 20 0 2 9 8
17 13 17 6 0 8 -9 4 -19 -5 -15 1 -22 30 -31 19 -6 33 -16 30 -21 -4 -5 -1 -9
4 -9 20 0 11 -20 -11 -30 -21 -9 -20 -9 7 -7 24 2 29 -2 27 -16 -2 -14 3 -17
25 -15 18 2 27 -1 26 -9 -2 -7 6 -13 16 -13 12 0 18 -7 17 -17 -1 -12 9 -20
29 -24 32 -7 25 -12 -15 -10 -23 1 -23 0 -5 -8 l20 -9 -20 -4 c-11 -3 -8 -4 7
-2 21 3 32 -3 44 -21 9 -14 28 -28 43 -32 38 -9 45 -14 30 -25 -11 -8 -11 -9
2 -5 8 3 33 -6 55 -19 38 -23 74 -34 44 -13 -12 8 -11 10 5 7 11 -2 20 -8 20
-13 0 -6 8 -21 17 -34 15 -21 21 -23 41 -14 24 11 50 4 46 -13 -1 -5 1 -17 4
-26 4 -10 9 -25 12 -34 7 -22 28 -6 22 17 -6 21 1 23 22 10 7 -5 11 -14 7 -19
-4 -7 9 -15 33 -22 22 -6 44 -16 48 -24 10 -16 67 -36 103 -36 15 0 44 -7 64
-15 23 -10 36 -11 36 -5 0 7 10 6 28 -3 15 -8 46 -20 70 -26 23 -7 42 -16 42
-21 0 -6 26 -10 58 -10 73 0 109 -9 90 -22 -9 -6 -6 -7 10 -3 14 4 28 1 38 -9
8 -9 24 -16 35 -16 10 0 19 -4 19 -9 0 -5 17 -11 38 -14 20 -4 54 -15 75 -26
20 -10 37 -15 37 -10 0 5 -4 9 -10 9 -5 0 -10 4 -10 10 0 5 9 6 21 1 12 -4 41
-4 65 -1 31 5 47 3 55 -6 6 -7 20 -16 31 -20 31 -9 58 -41 58 -69 0 -13 9 -47
20 -75 17 -44 18 -51 5 -56 -18 -7 -47 14 -39 27 3 5 0 9 -5 9 -6 0 -11 -7
-11 -16 0 -15 -2 -15 -25 0 -14 9 -25 14 -25 11 0 -14 66 -76 118 -111 31 -21
60 -43 64 -49 19 -29 56 -61 83 -71 17 -6 29 -16 27 -22 -1 -7 5 -12 15 -12 9
0 13 -3 10 -7 -11 -10 14 -33 35 -33 17 0 19 -5 14 -33 -3 -18 -3 -36 0 -40 4
-4 8 -20 8 -37 1 -23 -3 -29 -14 -24 -8 3 -5 -4 7 -15 29 -27 33 -26 33 4 0
16 6 25 16 25 13 0 14 -3 5 -14 -6 -7 -9 -20 -5 -29 3 -8 0 -18 -6 -22 -7 -5
-5 -12 7 -23 25 -23 57 -96 67 -152 8 -50 18 -85 28 -107 8 -16 8 -26 0 -36
-17 -20 6 -91 25 -76 10 9 13 6 13 -15 0 -14 -5 -26 -11 -26 -14 0 -2 -113 12
-118 5 -2 9 -14 9 -27 0 -14 10 -33 21 -44 20 -18 21 -25 12 -88 -8 -52 -7
-70 3 -80 13 -13 10 -37 -8 -59 -5 -7 -8 -16 -6 -20 1 -5 -6 -25 -17 -44 -10
-19 -18 -46 -16 -59 2 -15 -1 -21 -8 -17 -7 4 -11 -1 -11 -13 0 -12 -4 -21
-10 -21 -5 0 -10 -4 -10 -9 0 -5 9 -7 20 -4 11 3 20 0 20 -6 0 -6 -4 -11 -9
-11 -6 0 -10 -8 -10 -17 0 -10 -4 -37 -10 -60 -6 -24 -11 -46 -10 -50 1 -5 0
-10 -1 -13 -1 -3 -3 -29 -5 -59 -2 -30 -9 -57 -16 -62 -10 -6 -10 -11 1 -24
12 -15 11 -19 -7 -33 -15 -12 -21 -29 -22 -57 0 -50 -3 -59 -29 -115 -12 -25
-22 -56 -22 -70 0 -14 -8 -55 -18 -91 -12 -46 -22 -65 -32 -64 -10 2 -16 -8
-17 -31 -3 -28 0 -34 17 -34 24 0 25 -6 5 -26 -11 -11 -15 -12 -15 -3 0 7 -3
9 -7 5 -4 -4 -8 -17 -8 -29 0 -13 -6 -22 -15 -22 -8 0 -16 -10 -18 -23 -2 -13
-8 -20 -14 -16 -7 4 -8 2 -4 -4 8 -14 -10 -52 -25 -52 -17 0 -40 -28 -43 -52
-4 -39 -26 -72 -39 -59 -16 16 -27 13 -27 -8 0 -12 -9 -20 -29 -24 -16 -4 -43
-20 -61 -37 -17 -16 -40 -30 -50 -30 -11 0 -20 -7 -20 -15 0 -9 -7 -18 -15
-21 -8 -3 -17 -14 -20 -25 -4 -11 -10 -17 -13 -15 -4 2 -15 -9 -24 -25 -11
-19 -13 -29 -6 -29 7 0 -3 -11 -22 -25 -26 -19 -30 -26 -18 -30 21 -8 12 -42
-13 -48 -12 -3 -22 -17 -25 -36 -4 -17 -10 -31 -15 -31 -5 0 -9 -6 -9 -14 0
-7 -7 -19 -15 -26 -8 -7 -15 -18 -15 -26 0 -13 -45 -64 -58 -64 -3 0 -15 -11
-27 -25 -13 -16 -32 -26 -53 -27 -25 -2 -34 -8 -38 -25 -4 -13 -12 -23 -20
-23 -8 0 -14 -7 -14 -15 0 -8 -4 -15 -10 -15 -5 0 -10 -5 -10 -11 0 -18 -24
-35 -55 -37 -18 -1 -37 -12 -50 -28 -16 -21 -26 -25 -44 -19 -28 8 -88 -18
-95 -43 -6 -17 -46 -26 -46 -10 0 10 -57 10 -62 0 -1 -4 -25 -17 -53 -29 -27
-11 -49 -25 -48 -32 2 -6 -4 -11 -12 -11 -8 0 -14 6 -12 13 3 15 -52 22 -66 8
-6 -6 -36 -11 -66 -11 -61 0 -88 -11 -76 -30 5 -9 1 -10 -16 -5 -39 12 -43 11
-47 -10 -6 -29 -19 -39 -50 -41 -15 0 -43 -2 -62 -3 -33 -3 -33 -4 -10 -11 21
-7 19 -8 -17 -9 -35 -1 -42 -4 -40 -21 1 -11 5 -20 9 -20 4 0 5 -7 1 -16 -4
-11 -8 -12 -13 -4 -4 6 -10 11 -14 10 -19 -6 -76 13 -91 30 -13 14 -31 20 -64
20 -36 1 -53 7 -81 30 -19 17 -44 30 -55 30 -12 0 -39 13 -61 30 -21 16 -42
30 -46 30 -8 0 -75 57 -120 103 -23 23 -38 47 -38 62 0 13 -10 33 -22 45 -16
14 -18 20 -7 20 13 0 49 -33 49 -46 0 -10 28 -34 39 -34 16 0 14 11 -6 32 -15
17 -15 18 5 18 23 0 29 14 12 25 -5 3 -10 2 -10 -4 0 -6 -6 -8 -14 -5 -9 3
-12 13 -9 22 5 14 3 15 -7 5 -10 -9 -17 -10 -27 -2 -21 18 -15 32 12 27 14 -3
25 -1 25 3 0 5 -6 9 -14 9 -8 0 -17 7 -20 16 -4 11 -14 14 -33 10 -22 -5 -31
-2 -41 15 -11 16 -11 23 -2 29 8 5 1 15 -20 30 -20 14 -29 28 -25 38 6 16 -21
52 -39 52 -17 1 -66 47 -66 63 0 8 -7 20 -15 27 -8 6 -17 22 -21 33 -4 12 -29
44 -57 72 -28 27 -59 69 -69 92 -10 23 -24 48 -31 55 -11 11 -36 66 -82 183
-4 11 -9 26 -9 33 -1 7 -6 16 -13 20 -6 4 -13 19 -15 32 -2 14 -9 34 -15 45
-6 11 -11 33 -11 49 0 15 -4 31 -9 35 -5 3 -10 15 -11 26 -4 44 -15 101 -22
110 -14 20 -41 118 -43 156 -1 22 -4 39 -8 39 -3 0 -4 11 -1 25 3 19 1 24 -11
20 -11 -5 -13 0 -9 21 3 18 1 25 -6 20 -14 -8 -20 31 -11 66 4 15 3 30 -2 34
-15 9 -37 68 -44 120 -3 27 -13 75 -21 108 -10 39 -13 84 -10 135 4 56 1 85
-9 105 -19 36 -19 68 0 130 18 58 20 116 4 116 -8 0 -9 13 -5 42 4 23 8 73 10
112 2 43 9 74 17 80 9 7 15 35 16 70 2 33 6 62 10 65 5 3 8 59 8 124 0 67 4
121 10 125 21 15 35 53 35 96 0 25 5 57 11 73 6 15 10 30 10 33 0 3 7 12 15
21 16 18 9 30 -14 22 -9 -4 -7 2 7 16 18 18 22 32 19 66 -2 34 1 45 13 48 9 3
20 19 24 36 5 26 16 36 56 53 27 12 49 25 49 30 0 4 9 17 20 28 11 11 17 20
13 20 -20 0 40 29 94 46 71 22 80 34 26 34 -40 0 -66 -11 -63 -26 0 -5 -6 -10
-14 -12 -23 -5 -16 42 7 48 15 4 14 8 -9 35 -25 29 -25 29 -19 5 4 -18 0 -32
-15 -48 -11 -12 -22 -22 -24 -22 -1 0 -3 15 -4 34 -1 20 7 44 18 59 21 26 27
53 10 42 -5 -3 -10 -4 -10 -1 0 2 -3 12 -7 22 -4 12 -3 15 5 10 7 -4 12 -1 12
8 0 15 11 20 38 17 21 -3 13 28 -13 45 -32 21 -32 34 -1 34 30 0 42 15 19 24
-9 4 -20 1 -25 -6 -6 -10 -8 -10 -8 0 0 7 11 18 25 24 21 9 23 13 11 20 -8 5
-13 15 -10 23 4 8 10 13 14 10 10 -6 23 13 27 40 8 51 25 86 41 83 11 -2 16
-11 14 -23 -2 -11 -1 -17 4 -13 4 4 13 0 21 -10 13 -15 14 -13 9 17 -4 19 -3
32 0 28 4 -3 16 5 26 19 11 14 23 23 26 20 2 -3 0 -12 -7 -20 -9 -11 -8 -15 4
-20 9 -3 14 -2 10 3 -7 12 5 41 17 41 14 0 58 36 52 43 -8 8 34 19 45 12 6 -3
8 4 6 15 -3 14 1 20 15 20 10 0 20 7 24 15 3 8 16 20 28 25 13 6 37 19 53 29
30 20 70 28 61 13 -2 -4 5 -9 16 -9 16 -2 18 1 9 10 -21 21 -11 28 35 23 37
-4 45 -2 40 10 -8 21 27 18 57 -6z m572 -31 c15 -15 -17 -10 -45 7 l-25 15 30
-6 c17 -4 34 -11 40 -16z m301 0 c8 -14 -10 -11 -32 6 -18 13 -18 14 4 8 12
-3 25 -9 28 -14z m149 -49 c3 -6 -1 -7 -9 -4 -18 7 -21 14 -7 14 6 0 13 -4 16
-10z m-252 -57 c-7 -2 -21 -2 -30 0 -10 3 -4 5 12 5 17 0 24 -2 18 -5z m-8
-23 c32 -7 23 -8 -39 -5 -43 3 -81 7 -84 10 -9 8 79 5 123 -5z m-197 -27 c-10
-2 -26 -2 -35 0 -10 3 -2 5 17 5 19 0 27 -2 18 -5z m1 -127 c9 -10 8 -15 -2
-19 -7 -3 -19 4 -25 14 -10 15 -9 19 2 19 7 0 19 -6 25 -14z m66 -86 c3 -5 1
-10 -4 -10 -6 0 -11 5 -11 10 0 6 2 10 4 10 3 0 8 -4 11 -10z m335 -140 c0 -5
-4 -10 -9 -10 -6 0 -13 5 -16 10 -3 6 1 10 9 10 9 0 16 -4 16 -10z m185 -50
c3 -5 2 -10 -4 -10 -5 0 -13 5 -16 10 -3 6 -2 10 4 10 5 0 13 -4 16 -10z m90
-10 c3 -5 -1 -10 -9 -10 -8 0 -18 5 -21 10 -3 6 1 10 9 10 8 0 18 -4 21 -10z
m-1935 -14 c0 -3 -4 -8 -10 -11 -5 -3 -10 -1 -10 4 0 6 5 11 10 11 6 0 10 -2
10 -4z m0 -141 c-7 -9 -15 -13 -18 -10 -3 2 1 11 8 20 7 9 15 13 18 10 3 -2
-1 -11 -8 -20z m-97 -2 c4 -3 2 -12 -4 -20 -9 -10 -8 -13 2 -14 8 -1 23 -2 34
-3 28 -2 31 -32 4 -46 -19 -11 -21 -10 -16 4 4 10 1 16 -7 16 -19 0 -68 48
-61 60 7 11 38 13 48 3z m-9 -97 c-3 -8 -12 -12 -20 -9 -17 6 -9 23 11 23 8 0
12 -6 9 -14z m2640 -42 c10 -25 -1 -29 -14 -5 -6 12 -7 21 -1 21 5 0 12 -7 15
-16z m934 -588 c52 -33 77 -63 101 -119 47 -111 52 -280 11 -436 -12 -47 -30
-130 -40 -185 -10 -56 -30 -132 -43 -171 -31 -89 -44 -149 -52 -249 -4 -44
-12 -89 -19 -100 -50 -91 -199 -185 -272 -171 -42 7 -94 60 -94 96 0 15 4 30
9 33 5 3 11 20 14 38 2 18 15 67 27 108 13 41 22 88 21 103 -2 36 47 106 74
107 14 0 24 -10 32 -30 13 -35 26 -38 51 -10 9 10 40 43 68 72 43 44 56 67 78
137 16 50 26 100 24 125 l-3 41 -13 -60 c-35 -161 -64 -214 -128 -241 -18 -8
-35 -18 -39 -24 -3 -5 -15 -10 -26 -10 -28 0 -25 42 6 78 21 25 24 38 23 103
-1 58 4 82 20 111 11 20 18 39 15 42 -4 3 -2 6 4 6 6 0 13 11 15 25 3 14 1 25
-4 25 -6 0 -8 7 -4 15 3 8 1 15 -5 15 -6 0 -8 4 -5 8 2 4 -1 35 -8 68 -12 57
-11 64 10 113 15 33 28 50 35 45 6 -3 15 0 20 7 8 12 10 12 18 0 7 -11 10 -8
16 10 8 27 44 69 58 69 6 0 19 -7 29 -17 17 -15 18 -14 18 23 0 46 -31 101
-64 113 -13 5 -26 16 -29 25 -4 9 -14 13 -27 11 -24 -5 -26 8 -5 29 8 8 15 22
15 30 0 23 25 20 68 -8z m-4125 -237 c40 -39 41 -41 23 -55 -11 -8 -25 -14
-31 -14 -6 0 -26 -15 -44 -34 -33 -34 -34 -36 -28 -101 5 -70 23 -107 33 -69
7 25 48 51 89 55 17 2 35 7 42 12 8 6 18 -6 32 -37 12 -25 21 -49 21 -55 0
-17 22 -24 32 -10 7 10 8 8 5 -10 -3 -13 -2 -34 3 -47 6 -16 5 -35 -6 -59 -8
-20 -12 -45 -9 -56 4 -11 2 -19 -4 -19 -6 0 -11 -13 -11 -30 0 -24 3 -28 18
-23 16 6 16 6 -1 -11 -13 -14 -16 -26 -11 -50 14 -64 23 -72 20 -18 -3 70 11
53 17 -20 3 -42 11 -66 30 -91 15 -20 32 -46 38 -60 6 -14 20 -28 31 -30 10
-3 18 -9 16 -14 -1 -4 5 -33 14 -63 9 -30 21 -84 28 -120 6 -35 21 -83 32
-107 11 -24 21 -66 22 -96 l1 -52 -94 4 c-111 4 -163 23 -213 79 -20 22 -43
60 -53 86 -16 41 -17 57 -7 119 10 70 7 122 -9 142 -4 6 -17 46 -29 90 -24 91
-61 209 -95 307 -28 78 -55 213 -55 272 0 66 27 143 67 187 19 21 37 39 40 39
2 0 23 -18 46 -41z m197 -339 c0 -5 -4 -10 -10 -10 -5 0 -10 5 -10 10 0 6 5
10 10 10 6 0 10 -4 10 -10z m-18 -182 c-7 -7 -12 -8 -12 -2 0 14 12 26 19 19
2 -3 -1 -11 -7 -17z m46 -166 c-3 -14 -6 -14 -16 6 -7 12 -10 27 -6 33 9 15
27 -16 22 -39z m3321 -1368 c25 -61 28 -88 52 -407 16 -219 6 -314 -54 -492
-25 -71 -47 -143 -51 -160 -4 -16 -27 -104 -51 -195 -24 -91 -53 -203 -64
-250 -12 -47 -30 -116 -41 -155 -24 -84 -64 -248 -80 -328 -11 -55 -49 -191
-184 -662 -26 -87 -155 -548 -171 -605 -8 -30 -32 -120 -54 -200 -71 -259
-199 -741 -247 -925 -87 -340 -79 -367 -82 270 -2 374 1 645 10 815 17 329 15
460 -11 650 -12 95 -17 156 -11 158 6 2 10 11 10 19 0 26 59 193 102 288 40
89 119 237 165 306 13 20 21 42 18 50 -4 10 16 20 74 38 82 24 141 54 141 70
0 13 -107 155 -158 211 l-42 45 -21 -25 c-11 -14 -41 -51 -67 -82 -26 -32 -55
-58 -64 -58 -9 0 -20 -5 -23 -11 -4 -6 -13 -8 -21 -5 -8 3 -31 -3 -52 -14 -20
-11 -82 -38 -137 -60 -94 -38 -113 -41 -300 -60 -110 -12 -216 -25 -235 -29
-100 -25 -134 -23 -232 15 -51 20 -101 37 -110 37 -10 1 -22 13 -27 27 -5 14
-18 36 -30 49 -13 15 -21 36 -20 55 1 17 -1 50 -5 73 -6 36 -10 40 -22 30 -29
-23 -117 -119 -173 -186 -20 -25 -53 -64 -74 -89 -21 -24 -36 -49 -34 -56 5
-18 126 -54 206 -62 83 -7 76 -4 173 -94 128 -118 334 -376 359 -447 6 -18 15
-33 20 -33 14 0 3 -39 -46 -175 -51 -137 -89 -269 -110 -370 -38 -189 -77
-500 -90 -717 -4 -60 -10 -108 -13 -108 -7 0 -60 162 -152 460 -23 74 -56 182
-75 240 -18 58 -54 173 -80 255 -25 83 -97 305 -160 495 -63 190 -118 363
-124 385 -6 22 -32 103 -59 180 -26 77 -65 201 -86 275 -65 227 -182 609 -224
726 -75 210 -87 270 -86 449 1 213 34 409 65 390 5 -4 9 -15 9 -26 0 -10 5
-19 11 -19 6 0 9 -7 5 -15 -3 -8 -1 -15 5 -15 5 0 15 -12 22 -27 6 -16 18 -32
25 -37 8 -4 20 -22 29 -40 28 -61 60 -112 91 -142 6 -7 12 -17 12 -21 0 -5 9
-19 20 -31 12 -12 17 -22 13 -22 -4 0 -2 -4 4 -8 17 -11 29 -72 14 -72 -6 0
-11 5 -11 10 0 6 -7 10 -15 10 -8 0 -32 17 -53 38 -21 20 -49 46 -62 57 -23
20 -23 19 4 -30 31 -59 87 -125 104 -125 7 0 12 -6 12 -13 0 -14 125 -146 155
-164 11 -6 19 -16 18 -22 -2 -6 4 -8 13 -4 8 3 14 2 13 -3 -5 -26 2 -35 23
-29 16 6 20 4 15 -8 -6 -16 50 -77 71 -77 6 0 9 -6 7 -12 -5 -15 171 -138 196
-138 21 0 72 -47 57 -52 -34 -12 68 -89 135 -103 30 -6 37 -25 10 -25 -15 0
-16 -2 -3 -10 20 -13 33 -13 25 0 -8 13 25 13 45 0 12 -8 11 -10 -7 -10 -12 0
-25 -5 -28 -10 -4 -6 -2 -9 4 -8 5 2 16 -6 24 -16 14 -19 15 -19 33 -2 17 18
18 18 35 -2 9 -12 28 -24 43 -28 14 -3 24 -9 22 -13 -3 -4 -1 -13 5 -21 7 -12
9 -11 9 4 0 18 3 17 28 -6 37 -36 73 -43 110 -24 39 20 56 20 48 1 -4 -11 9
-19 51 -31 31 -9 65 -16 77 -15 12 0 38 1 59 2 23 0 41 7 44 15 3 8 16 14 30
14 13 0 34 11 47 25 13 13 26 22 29 18 4 -3 7 -1 7 5 0 7 7 12 16 12 9 0 30
10 47 23 18 12 41 27 52 33 111 60 272 159 315 193 51 41 165 138 225 193 22
20 52 46 68 58 15 12 27 28 27 36 0 8 6 14 14 14 37 0 246 266 302 385 53 112
67 181 59 298 -9 118 4 127 44 31z m-859 -378 c0 -3 -4 -8 -10 -11 -5 -3 -10
-1 -10 4 0 6 5 11 10 11 6 0 10 -2 10 -4z m-1600 -46 c0 -5 -7 -10 -15 -10 -8
0 -15 5 -15 10 0 6 7 10 15 10 8 0 15 -4 15 -10z m1560 -10 c0 -5 -4 -10 -10
-10 -5 0 -10 5 -10 10 0 6 5 10 10 10 6 0 10 -4 10 -10z m-120 -70 c0 -5 -4
-10 -10 -10 -5 0 -10 5 -10 10 0 6 5 10 10 10 6 0 10 -4 10 -10z m95 -188 c-8
-9 -45 -10 -45 -1 0 4 6 9 13 12 15 5 40 -3 32 -11z m-1045 -402 c0 -5 -4 -10
-10 -10 -5 0 -10 5 -10 10 0 6 5 10 10 10 6 0 10 -4 10 -10z m50 -14 c0 -11
-19 -15 -25 -6 -3 5 1 10 9 10 9 0 16 -2 16 -4z m320 -122 c0 -2 -13 -4 -30
-4 -16 0 -30 4 -30 8 0 5 14 7 30 4 17 -2 30 -6 30 -8z m-70 -10 c0 -2 -9 -4
-21 -4 -11 0 -18 4 -14 10 5 8 35 3 35 -6z m50 -34 c12 -8 11 -10 -7 -10 -12
0 -25 5 -28 10 -8 13 15 13 35 0z m123 -7 c-7 -2 -19 -2 -25 0 -7 3 -2 5 12 5
14 0 19 -2 13 -5z m30 -30 c-7 -2 -19 -2 -25 0 -7 3 -2 5 12 5 14 0 19 -2 13
-5z m122 -23 c-3 -5 -15 -10 -26 -10 -10 0 -19 5 -19 10 0 6 12 10 26 10 14 0
23 -4 19 -10z m465 -360 c0 -5 -5 -10 -11 -10 -5 0 -7 5 -4 10 3 6 8 10 11 10
2 0 4 -4 4 -10z m-1280 -176 c25 -15 25 -15 -10 -8 -40 7 -65 24 -34 24 10 -1
30 -7 44 -16z m620 -204 c0 -5 -5 -10 -11 -10 -5 0 -7 5 -4 10 3 6 8 10 11 10
2 0 4 -4 4 -10z m19 -61 c-8 -4 -16 -5 -19 -2 -3 3 1 8 8 10 6 3 13 14 13 26
2 20 2 20 6 -2 3 -13 -1 -27 -8 -32z m265 -334 c-4 -8 -12 -15 -18 -15 -7 0
-13 7 -13 15 0 8 8 15 18 15 12 0 16 -5 13 -15z m-61 -123 c-9 -6 -10 -17 -4
-40 9 -30 8 -31 -11 -21 -15 8 -17 13 -8 19 10 6 9 9 -1 12 -12 4 -12 7 0 21
7 10 19 17 25 17 7 0 7 -3 -1 -8z m-18 -102 c3 -6 -1 -7 -9 -4 -18 7 -21 14
-7 14 6 0 13 -4 16 -10z m-35 -125 c11 -13 10 -14 -4 -9 -9 3 -16 10 -16 15 0
13 6 11 20 -6z m0 -69 c-6 -17 -5 -26 3 -30 7 -2 5 -5 -4 -5 -12 -1 -16 7 -15
29 1 16 7 30 13 30 9 0 10 -7 3 -24z m-6 -78 c-3 -4 0 -8 7 -8 7 0 10 -2 8 -5
-3 -2 -15 -2 -27 2 -18 4 -20 8 -11 25 9 16 13 18 19 7 5 -7 6 -17 4 -21z
m196 11 c0 -5 -4 -9 -10 -9 -5 0 -10 7 -10 16 0 8 5 12 10 9 6 -3 10 -10 10
-16z m-113 -15 c-3 -3 -12 -4 -19 -1 -8 3 -5 6 6 6 11 1 17 -2 13 -5z m-73
-35 c-3 -5 2 -9 11 -9 10 0 13 5 9 12 -5 8 -2 9 10 5 10 -4 23 -7 29 -8 7 0 1
-5 -13 -10 -29 -12 -66 -5 -73 15 -4 10 0 12 14 9 10 -3 16 -9 13 -14z m156
11 c0 -5 -8 -10 -17 -10 -15 0 -16 2 -3 10 19 12 20 12 20 0z m-37 -53 c9 -3
17 -12 16 -19 0 -10 -2 -10 -6 0 -2 6 -15 12 -27 12 -15 0 -22 6 -23 23 -2 19
0 20 10 6 7 -8 20 -18 30 -22z m41 24 c3 -5 -5 -8 -19 -7 -14 0 -25 4 -25 9 0
10 38 9 44 -2z m53 -7 c-3 -3 -12 -4 -19 -1 -8 3 -5 6 6 6 11 1 17 -2 13 -5z
m-37 -18 c0 -2 -7 -7 -16 -10 -8 -3 -12 -2 -9 4 6 10 25 14 25 6z m75 -34 c-3
-3 -11 0 -18 7 -9 10 -8 11 6 5 10 -3 15 -9 12 -12z m-65 -2 c0 -5 -4 -10 -9
-10 -6 0 -13 5 -16 10 -3 6 1 10 9 10 9 0 16 -4 16 -10z m90 -110 c0 -5 -2
-10 -4 -10 -3 0 -8 5 -11 10 -3 6 -1 10 4 10 6 0 11 -4 11 -10z m-53 -106 c-3
-3 -12 -4 -19 -1 -8 3 -5 6 6 6 11 1 17 -2 13 -5z m3 -54 c0 -5 -5 -10 -11
-10 -5 0 -7 5 -4 10 3 6 8 10 11 10 2 0 4 -4 4 -10z m24 -15 c3 -8 1 -15 -4
-15 -6 0 -10 7 -10 15 0 8 2 15 4 15 2 0 6 -7 10 -15z m13 -61 c-3 -3 -12 -4
-19 -1 -8 3 -5 6 6 6 11 1 17 -2 13 -5z m11 -36 c-2 -12 -9 -23 -17 -26 -9 -3
-11 0 -6 8 6 10 1 12 -17 8 -21 -4 -24 -1 -20 14 3 12 14 18 34 18 24 0 29 -4
26 -22z m-2 -53 c-1 -8 -6 -18 -11 -22 -4 -5 -5 -2 0 6 6 11 4 13 -10 7 -15
-5 -16 -4 -5 9 16 19 29 19 26 0z m-1 -346 c-10 -15 -25 -10 -19 6 4 8 10 12
15 9 5 -3 7 -10 4 -15z m-10 -29 c3 -5 1 -10 -4 -10 -6 0 -11 5 -11 10 0 6 2
10 4 10 3 0 8 -4 11 -10z m-10 -50 c3 -5 1 -10 -4 -10 -6 0 -11 5 -11 10 0 6
2 10 4 10 3 0 8 -4 11 -10z m2475 -20 c0 -5 -5 -10 -11 -10 -5 0 -7 5 -4 10 3
6 8 10 11 10 2 0 4 -4 4 -10z m-2480 -47 c-8 -3 -21 -10 -28 -16 -9 -7 -11 -6
-6 7 3 9 16 16 28 15 14 0 16 -2 6 -6z m-20 -43 c0 -5 -8 -10 -17 -10 -15 0
-16 2 -3 10 19 12 20 12 20 0z m10 -49 c0 -13 -27 -21 -47 -14 -15 6 -15 7 3
14 27 11 44 11 44 0z m-93 -27 c-3 -3 -12 -4 -19 -1 -8 3 -5 6 6 6 11 1 17 -2
13 -5z m50 -31 c0 -7 -5 -13 -11 -13 -6 0 -4 -5 4 -11 13 -9 13 -10 0 -6 -8 2
-16 17 -17 36 -2 26 0 29 10 19 8 -7 14 -18 14 -25z m-37 -23 c0 -5 -2 -10 -4
-10 -3 0 -8 5 -11 10 -3 6 -1 10 4 10 6 0 11 -4 11 -10z m-40 -16 c0 -2 -14
-4 -31 -4 -16 0 -28 4 -25 9 5 8 56 3 56 -5z m-37 -21 c-7 -2 -19 -2 -25 0 -7
3 -2 5 12 5 14 0 19 -2 13 -5z m117 -18 c0 -7 7 -18 16 -23 14 -8 14 -10 -1
-22 -13 -11 -14 -10 -8 6 6 17 5 17 -11 5 -15 -12 -19 -12 -34 4 -16 16 -16
17 5 6 14 -7 24 -8 28 -1 3 5 2 10 -3 10 -5 0 -9 7 -9 15 0 8 4 15 9 15 4 0 8
-7 8 -15z m-126 -10 c3 -8 1 -15 -4 -15 -6 0 -10 7 -10 15 0 8 2 15 4 15 2 0
6 -7 10 -15z m-74 1 c0 -3 -4 -8 -10 -11 -5 -3 -10 -1 -10 4 0 6 5 11 10 11 6
0 10 -2 10 -4z m122 -13 c-13 -3 -19 -9 -16 -15 4 -7 2 -8 -5 -4 -17 11 -3 26
22 25 22 -2 22 -2 -1 -6z m-138 -28 c-4 -8 -13 -15 -22 -15 -13 0 -12 3 4 15
24 18 25 18 18 0z m150 -1 c3 -8 2 -12 -4 -9 -6 3 -10 10 -10 16 0 14 7 11 14
-7z m-247 0 c-3 -3 -12 -4 -19 -1 -8 3 -5 6 6 6 11 1 17 -2 13 -5z m156 -1
c-7 -2 -21 -2 -30 0 -10 3 -4 5 12 5 17 0 24 -2 18 -5z m127 -19 c0 -8 -4 -13
-9 -9 -5 3 -12 1 -16 -5 -3 -5 3 -15 15 -22 11 -7 20 -18 20 -25 0 -7 8 -17
18 -22 14 -9 13 -10 -10 -11 -16 0 -28 5 -28 11 0 5 -4 7 -10 4 -5 -3 -10 3
-10 14 0 12 -4 21 -9 21 -6 0 -9 9 -8 20 1 11 7 20 14 20 7 0 13 5 13 10 0 6
5 10 10 10 6 0 10 -7 10 -16z m-247 -9 c0 -6 -7 -11 -16 -13 -12 -3 -15 1 -11
13 7 17 25 17 27 0z m167 6 c0 -9 -24 -21 -41 -21 -14 0 14 29 29 30 6 0 12
-4 12 -9z m140 -20 c0 -12 -2 -13 -9 -3 -4 7 -14 12 -21 10 -7 -2 -14 2 -17 8
-2 7 5 10 22 7 15 -3 25 -12 25 -22z m-228 -6 c2 3 5 -2 5 -10 0 -8 -6 -15
-13 -15 -7 0 -16 -5 -20 -11 -4 -8 1 -9 17 -4 19 5 21 4 9 -4 -12 -9 -11 -11
8 -11 13 0 20 4 17 10 -3 6 -2 10 4 10 5 0 12 -4 15 -9 3 -5 15 -11 26 -14 26
-7 26 14 0 30 -17 11 -18 10 -13 -5 6 -15 5 -15 -10 -3 -20 16 -22 27 -4 28 6
0 25 3 40 6 24 5 27 3 22 -12 -3 -10 -1 -30 5 -45 6 -17 6 -25 0 -21 -18 11
-81 15 -75 5 3 -5 1 -10 -5 -10 -7 0 -8 -6 -1 -19 8 -14 7 -20 -4 -25 -8 -3
-15 -2 -15 3 0 4 -24 11 -52 14 -37 5 -57 12 -67 27 -7 11 -21 20 -30 20 -14
0 -14 2 -1 10 10 6 11 10 3 10 -7 0 -13 4 -13 10 0 5 7 7 15 4 11 -5 13 -2 9
10 -5 12 0 16 22 15 16 0 23 -3 16 -6 -6 -2 -10 -9 -6 -14 3 -5 1 -9 -5 -9
-13 0 -8 -28 9 -43 10 -9 11 -9 6 1 -10 18 3 52 20 52 9 0 12 5 8 11 -5 8 -1
8 14 0 14 -7 23 -8 27 -1 3 5 1 10 -4 10 -6 0 -11 5 -11 11 0 8 4 9 13 0 8 -6
16 -9 19 -6z m-179 -30 c-3 -9 -8 -14 -10 -11 -3 3 -2 9 2 15 9 16 15 13 8 -4z
m63 -70 c20 -14 44 -25 53 -26 9 -1 5 -5 -9 -9 -17 -5 -19 -8 -7 -9 20 -1 20
-4 7 -53 -6 -21 -12 -41 -13 -45 -3 -13 -31 -43 -40 -43 -5 0 -1 8 9 17 15 16
15 17 -2 24 -13 5 -15 8 -4 8 13 1 13 2 0 11 -13 9 -13 10 0 11 8 1 22 0 30
-1 10 -1 9 3 -5 14 -11 8 -25 16 -31 16 -6 0 -11 15 -10 33 1 22 -5 36 -19 45
-19 13 -19 13 5 8 24 -5 24 -4 6 9 -33 25 -9 17 30 -10z m197 -6 c-4 -15 -8
-17 -14 -8 -8 14 -3 29 11 29 4 0 6 -9 3 -21z m-83 -58 c0 -11 -3 -22 -7 -24
-5 -3 -8 6 -8 19 0 13 3 24 8 24 4 0 7 -9 7 -19z m-65 -241 c3 -5 -1 -10 -9
-10 -9 0 -16 5 -16 10 0 6 4 10 9 10 6 0 13 -4 16 -10z m15 -69 c0 -6 -4 -13
-10 -16 -5 -3 -10 1 -10 9 0 9 5 16 10 16 6 0 10 -4 10 -9z m-30 -33 c0 -4 -7
-8 -15 -8 -8 0 -15 4 -15 8 0 5 7 9 15 9 8 0 15 -4 15 -9z m24 -32 c-3 -9 -10
-16 -15 -16 -5 0 -4 9 3 20 14 22 21 20 12 -4z m-43 -69 c-10 -9 -11 -8 -5 6
3 10 9 15 12 12 3 -3 0 -11 -7 -18z m359 -2017 c0 -13 -60 -80 -72 -80 -8 0
61 89 70 90 1 0 2 -4 2 -10z"/>
<path d="M5810 10578 c0 -7 5 -20 10 -28 8 -12 10 -11 10 7 0 12 -4 25 -10 28
-5 3 -10 0 -10 -7z"/>
<path d="M5860 10531 c0 -6 4 -13 10 -16 6 -3 7 1 4 9 -7 18 -14 21 -14 7z"/>
<path d="M5538 10353 c7 -3 16 -2 19 1 4 3 -2 6 -13 5 -11 0 -14 -3 -6 -6z"/>
<path d="M5786 10348 c4 -7 14 -22 23 -32 15 -18 15 -19 -4 -12 -23 9 -108 36
-114 36 -10 0 98 -69 115 -73 10 -2 0 -5 -23 -6 -43 -1 -65 -17 -43 -31 16
-10 52 -1 44 11 -3 5 1 9 9 9 8 0 17 -7 21 -15 3 -8 11 -15 18 -15 9 0 8 3 -2
10 -12 8 -10 10 8 10 35 0 65 -19 58 -37 -4 -11 -2 -13 9 -10 8 4 20 0 27 -7
8 -7 24 -18 36 -25 19 -10 21 -15 11 -27 -14 -17 2 -19 18 -3 6 6 9 18 6 25
-3 8 0 14 6 14 6 0 11 -4 11 -9 0 -5 7 -11 15 -15 29 -11 16 33 -22 75 -46 50
-115 97 -121 80 -5 -14 -37 2 -71 35 -25 26 -47 32 -35 12z"/>
<path d="M5643 10343 c9 -2 23 -2 30 0 6 3 -1 5 -18 5 -16 0 -22 -2 -12 -5z"/>
<path d="M5290 10329 c-25 -3 -48 -4 -53 -2 -12 7 -48 -8 -42 -18 4 -5 -5 -13
-19 -19 -14 -5 -26 -12 -26 -15 0 -4 5 -3 11 1 8 4 9 -1 4 -17 -6 -20 -5 -22
6 -11 7 6 21 12 31 12 10 0 18 5 18 10 0 6 7 10 16 10 10 0 14 -5 10 -15 -3
-8 -9 -22 -12 -30 -8 -19 24 -20 49 -1 24 18 21 29 -4 16 -11 -7 -23 -9 -26
-7 -2 3 4 10 15 16 15 8 30 7 59 -3 22 -8 46 -10 58 -5 l20 8 -20 2 c-11 1
-26 2 -32 2 -22 -1 -14 16 15 32 l27 16 -32 -4 c-18 -2 -30 0 -27 5 3 4 24 8
46 8 23 0 39 2 37 4 -10 8 -88 12 -129 5z"/>
<path d="M5450 10320 c0 -5 7 -7 15 -4 8 4 15 8 15 10 0 2 -7 4 -15 4 -8 0
-15 -4 -15 -10z"/>
<path d="M3911 10247 c40 -54 60 -64 92 -43 21 14 25 14 46 0 25 -18 34 -15
25 10 -3 9 -15 16 -26 16 -10 0 -17 4 -14 9 3 5 -8 14 -24 21 -17 7 -30 16
-30 21 0 5 -8 9 -17 9 -16 0 -16 -2 -3 -11 12 -8 8 -9 -15 -6 -16 2 -39 8 -49
12 -14 6 -11 -3 15 -38z"/>
<path d="M5593 10273 c4 -7 -5 -16 -20 -22 -26 -10 -25 -10 12 -6 22 2 60 8
85 13 l45 9 -47 2 c-25 0 -54 4 -64 8 -11 4 -15 3 -11 -4z"/>
<path d="M3359 10142 c9 -7 10 -12 2 -16 -6 -4 -9 -12 -6 -17 3 -5 0 -6 -8 -3
-8 3 -18 -6 -26 -22 -18 -40 -7 -40 35 0 21 20 33 36 26 36 -7 0 -11 5 -9 11
1 6 -5 14 -13 16 -12 4 -12 3 -1 -5z"/>
<path d="M5994 10115 c-9 -22 1 -29 15 -11 8 10 9 16 1 21 -5 3 -13 -1 -16
-10z"/>
<path d="M5430 9959 c30 -5 84 -11 120 -13 36 -1 75 -8 85 -14 16 -9 8 -10
-40 -6 -45 3 -200 12 -255 14 -3 0 2 5 10 10 25 16 -5 12 -68 -9 -31 -10 -64
-21 -72 -23 -36 -8 -154 -157 -138 -173 9 -9 48 8 48 21 0 20 84 104 103 104
11 0 18 -12 23 -36 9 -50 49 -94 84 -94 16 0 32 -4 35 -10 3 -5 19 -10 35 -10
43 0 98 52 111 106 10 39 14 44 33 38 30 -9 83 -62 90 -89 5 -21 9 -22 43 -15
42 10 48 8 40 -14 -4 -9 -27 -17 -62 -21 -68 -9 -77 -20 -28 -36 20 -6 38 -8
40 -3 2 5 31 9 66 8 72 -1 94 7 99 38 3 20 8 23 45 20 38 -2 44 1 58 28 8 16
20 30 25 30 17 0 11 35 -10 57 -12 14 -15 23 -8 25 6 2 12 12 14 21 2 14 -1
15 -18 6 -15 -8 -24 -7 -36 4 -35 31 -69 35 -342 41 -141 4 -172 2 -130 -5z
m-42 -72 c2 -12 -3 -17 -17 -17 -12 0 -21 6 -21 13 0 31 32 34 38 4z m362 3
c12 -8 11 -10 -7 -10 -12 0 -25 5 -28 10 -8 13 15 13 35 0z"/>
<path d="M3725 9880 c-110 -17 -245 -73 -245 -102 0 -16 22 -8 155 54 15 7 14
4 -5 -12 -32 -29 -106 -66 -148 -75 -39 -8 -62 -42 -35 -52 10 -4 20 -10 23
-14 3 -4 24 -4 48 1 31 5 42 4 42 -5 0 -11 6 -11 30 -2 17 6 30 15 30 19 0 4
8 8 19 8 12 0 20 9 24 28 6 28 60 72 89 72 9 0 20 -9 23 -21 11 -35 64 -87 96
-94 21 -5 43 -1 68 10 20 10 43 21 51 25 8 4 24 30 35 58 18 46 22 50 45 45
25 -6 79 -42 113 -76 10 -10 28 -17 40 -15 20 4 18 8 -25 51 -26 25 -73 58
-105 73 -51 25 -70 28 -183 30 -69 2 -152 -1 -185 -6z m195 -35 c0 -8 -9 -15
-20 -15 -20 0 -26 11 -13 23 12 13 33 7 33 -8z"/>
<path d="M4841 8871 c-6 -10 -30 -24 -56 -30 -25 -6 -45 -15 -45 -20 0 -10
-107 -50 -141 -53 -26 -1 -107 34 -150 65 -23 17 -32 18 -61 8 -51 -17 -75
-48 -72 -93 2 -38 -5 -44 -45 -38 -9 1 -12 -5 -8 -20 5 -18 2 -21 -14 -17 -27
7 -24 -9 6 -29 18 -12 38 -15 66 -11 50 7 59 15 37 31 -16 12 -15 15 16 45 32
32 35 32 97 26 35 -4 84 -16 108 -26 55 -24 111 -24 181 1 30 11 70 19 88 20
19 0 39 8 49 20 13 15 25 18 54 14 41 -7 54 5 45 39 -5 22 -55 57 -81 57 -7 0
-18 7 -25 15 -17 20 -37 19 -49 -4z"/>
<path d="M5181 8817 c-8 -14 -17 -26 -20 -25 -15 3 -50 -19 -95 -58 -37 -32
-56 -42 -73 -39 -13 3 -34 7 -48 10 -14 3 -25 1 -25 -4 0 -18 105 -37 177 -32
52 3 113 98 101 156 -2 15 -5 14 -17 -8z"/>
<path d="M5342 8280 c-19 -11 -43 -29 -55 -40 -23 -22 -76 -27 -94 -9 -13 13
-79 21 -105 13 -10 -3 -18 -14 -18 -24 0 -10 -7 -21 -16 -24 -12 -4 -15 -2
-11 9 12 29 -11 24 -46 -10 -20 -20 -51 -38 -69 -42 -18 -3 -36 -11 -40 -17
-5 -6 -8 -2 -8 10 0 17 -5 20 -25 16 -14 -2 -25 -8 -25 -13 0 -5 -13 -9 -30
-9 -16 0 -30 5 -30 11 0 7 -7 8 -17 4 -10 -4 -27 -8 -38 -9 -30 -3 -69 -17
-78 -30 -5 -7 -12 -5 -23 9 -12 16 -16 17 -23 6 -5 -7 -14 -11 -20 -7 -6 4
-19 2 -29 -3 -10 -5 -60 -11 -110 -13 -84 -2 -93 -1 -116 21 -23 22 -29 23
-68 13 -24 -6 -52 -13 -63 -15 -11 -3 -28 -8 -37 -12 -12 -5 -17 -2 -16 12 1
10 -6 30 -16 46 -25 37 -60 36 -78 -3 -7 -16 -17 -30 -21 -30 -5 0 -5 -9 -2
-20 3 -11 2 -20 -3 -20 -6 0 -8 -9 -5 -20 6 -23 41 -27 49 -6 7 17 41 14 89
-8 31 -15 58 -17 183 -12 81 3 181 7 222 10 78 6 461 25 610 30 87 3 111 11
166 52 49 38 101 56 124 44 26 -14 26 0 3 57 -11 26 -24 43 -35 43 -9 0 -22 2
-30 5 -7 3 -28 -4 -46 -15z m-602 -175 c0 -8 -6 -15 -14 -15 -17 0 -28 14 -19
24 12 12 33 6 33 -9z"/>
<path d="M5097 7856 c-8 -8 -47 -24 -88 -36 -41 -12 -83 -26 -94 -31 -11 -5
-38 -11 -60 -14 -57 -7 -261 -24 -320 -27 -40 -2 -50 -7 -50 -20 0 -10 -4 -17
-10 -16 -28 4 -45 11 -45 19 0 5 7 6 15 3 19 -8 19 0 -1 20 -19 19 -44 21 -44
4 1 -17 35 -58 49 -58 6 0 11 -4 11 -10 0 -5 9 -10 19 -10 11 0 23 -4 26 -10
3 -5 22 -10 41 -10 19 0 34 -4 34 -9 0 -7 80 -20 145 -23 51 -2 129 10 133 20
2 6 20 14 40 17 20 4 46 10 57 15 11 5 45 19 75 31 66 27 84 39 72 51 -12 12
-2 69 14 75 16 6 19 33 5 33 -5 0 -16 -6 -24 -14z"/>
<path d="M5630 7620 c0 -5 5 -10 10 -10 6 0 10 5 10 10 0 6 -4 10 -10 10 -5 0
-10 -4 -10 -10z"/>
<path d="M3846 7371 c-7 -11 14 -20 32 -14 6 3 12 9 12 14 0 12 -37 12 -44 0z"/>
<path d="M3907 7326 c-4 -9 -1 -16 6 -16 14 0 16 -38 4 -58 -12 -18 10 -42 39
-42 26 0 54 -24 54 -46 0 -11 6 -13 19 -9 11 3 22 1 26 -5 3 -5 11 -10 17 -10
7 0 6 5 -1 14 -8 10 -9 16 -2 21 7 4 7 10 -1 19 -11 11 -15 11 -24 -2 -10 -13
-11 -11 -11 11 0 33 -19 57 -44 57 -22 0 -34 16 -17 23 8 3 6 6 -4 6 -11 1
-18 9 -18 22 0 12 -4 18 -11 13 -6 -3 -15 -1 -19 6 -5 8 -9 7 -13 -4z"/>
<path d="M5055 7181 c-3 -5 -1 -12 5 -16 5 -3 10 1 10 9 0 18 -6 21 -15 7z"/>
<path d="M4090 7154 c0 -8 5 -12 10 -9 6 4 8 11 5 16 -9 14 -15 11 -15 -7z"/>
<path d="M4115 7130 c3 -5 8 -10 11 -10 2 0 4 5 4 10 0 6 -5 10 -11 10 -5 0
-7 -4 -4 -10z"/>
<path d="M5038 7133 c7 -3 16 -2 19 1 4 3 -2 6 -13 5 -11 0 -14 -3 -6 -6z"/>
<path d="M4120 7050 c0 -5 5 -10 11 -10 5 0 7 5 4 10 -3 6 -8 10 -11 10 -2 0
-4 -4 -4 -10z"/>
<path d="M2733 9220 c3 -27 15 -69 27 -92 l20 -43 -5 55 c-8 74 -23 130 -37
130 -7 0 -9 -17 -5 -50z"/>
<path d="M2780 9076 c0 -11 30 -66 36 -66 2 0 -3 15 -12 33 -19 36 -24 44 -24
33z"/>
<path d="M5138 4213 c7 -3 16 -2 19 1 4 3 -2 6 -13 5 -11 0 -14 -3 -6 -6z"/>
<path d="M4850 3297 c0 -9 -5 -17 -11 -17 -5 0 -7 6 -3 13 5 9 3 9 -7 -1 -12
-11 -12 -14 1 -22 8 -5 11 -10 6 -10 -5 0 -3 -6 3 -14 16 -19 65 -13 69 8 2 9
-3 16 -12 16 -8 0 -22 10 -30 22 -13 18 -16 19 -16 5z m10 -47 c0 -5 -2 -10
-4 -10 -3 0 -8 5 -11 10 -3 6 -1 10 4 10 6 0 11 -4 11 -10z"/>
<path d="M4787 3194 c-4 -4 -7 -14 -7 -23 0 -11 3 -12 11 -4 6 6 10 16 7 23
-2 6 -7 8 -11 4z"/>
</g>
</svg>
